<svg width="16" height="16" viewBox="0 0 16 16" fill="none" xmlns="http://www.w3.org/2000/svg">
<g clip-path="url(#clip0)">
<rect width="16" height="16" rx="1" fill="#121212"/>
<path d="M10.0254 10.4844L11.2295 4.49023H13.8223L11.2119 14H8.83887L6.21973 4.49023H8.82129L10.0254 10.4844Z" fill="#F5C518"/>
<path d="M5.79688 2.15234V4.49023H7.07129V6.3623H5.79688V11.082C5.79688 11.457 5.84668 11.7148 5.94629 11.8555C6.05176 11.9961 6.25098 12.0664 6.54395 12.0664C6.78418 12.0664 6.98047 12.0459 7.13281 12.0049L7.11523 13.9385C6.69336 14.0967 6.23633 14.1758 5.74414 14.1758C4.13867 14.1758 3.32715 13.2559 3.30957 11.416L3.30957 6.3623H2.21094L2.21094 4.49023H3.30957V2.15234H5.79688Z" fill="#F5C518"/>
</g>
<defs>
<clipPath id="clip0">
<rect width="16" height="16" fill="white"/>
</clipPath>
</defs>
</svg>
